<svg width="164" height="50" viewBox="0 0 164 50" fill="none" xmlns="http://www.w3.org/2000/svg">
<path d="M5.4 13.14C4.54133 13.14 3.80867 12.9907 3.202 12.692C2.60467 12.3933 2.138 11.964 1.802 11.404C1.47533 10.8347 1.298 10.158 1.27 9.374C1.26067 8.97267 1.256 8.54333 1.256 8.086C1.256 7.61933 1.26067 7.18067 1.27 6.77C1.298 5.99533 1.47533 5.33267 1.802 4.782C2.138 4.23133 2.60933 3.80667 3.216 3.508C3.832 3.20933 4.56 3.06 5.4 3.06C6.08133 3.06 6.67867 3.15333 7.192 3.34C7.70533 3.51733 8.13 3.75067 8.466 4.04C8.81133 4.32 9.068 4.62333 9.236 4.95C9.41333 5.27667 9.50667 5.58 9.516 5.86C9.52533 5.944 9.502 6.014 9.446 6.07C9.39 6.126 9.31533 6.154 9.222 6.154H7.78C7.68667 6.154 7.61667 6.13533 7.57 6.098C7.52333 6.06067 7.48133 6.00467 7.444 5.93C7.36933 5.734 7.25267 5.54267 7.094 5.356C6.93533 5.16 6.72067 4.99667 6.45 4.866C6.17933 4.73533 5.82933 4.67 5.4 4.67C4.76533 4.67 4.25667 4.838 3.874 5.174C3.50067 5.51 3.3 6.06533 3.272 6.84C3.244 7.652 3.244 8.47333 3.272 9.304C3.3 10.0973 3.50533 10.6667 3.888 11.012C4.28 11.3573 4.79333 11.53 5.428 11.53C5.848 11.53 6.22133 11.4553 6.548 11.306C6.884 11.1567 7.14533 10.9233 7.332 10.606C7.528 10.2887 7.626 9.88267 7.626 9.388V8.954H5.918C5.82467 8.954 5.74533 8.92133 5.68 8.856C5.61467 8.79067 5.582 8.70667 5.582 8.604V7.862C5.582 7.75933 5.61467 7.67533 5.68 7.61C5.74533 7.54467 5.82467 7.512 5.918 7.512H9.264C9.36667 7.512 9.446 7.54467 9.502 7.61C9.56733 7.67533 9.6 7.75933 9.6 7.862V9.332C9.6 10.116 9.42733 10.7927 9.082 11.362C8.746 11.9313 8.26067 12.37 7.626 12.678C7.00067 12.986 6.25867 13.14 5.4 13.14ZM11.7307 13C11.6374 13 11.5581 12.9673 11.4927 12.902C11.4274 12.8367 11.3947 12.7573 11.3947 12.664V3.55C11.3947 3.44733 11.4274 3.36333 11.4927 3.298C11.5581 3.23267 11.6374 3.2 11.7307 3.2H17.8907C17.9934 3.2 18.0774 3.23267 18.1427 3.298C18.2081 3.36333 18.2407 3.44733 18.2407 3.55V4.474C18.2407 4.56733 18.2081 4.64667 18.1427 4.712C18.0774 4.77733 17.9934 4.81 17.8907 4.81H13.2847V7.288H17.5827C17.6854 7.288 17.7694 7.32067 17.8347 7.386C17.9001 7.442 17.9327 7.52133 17.9327 7.624V8.492C17.9327 8.59467 17.9001 8.67867 17.8347 8.744C17.7694 8.8 17.6854 8.828 17.5827 8.828H13.2847V11.39H18.0027C18.1054 11.39 18.1894 11.4227 18.2547 11.488C18.3201 11.5533 18.3527 11.6373 18.3527 11.74V12.664C18.3527 12.7573 18.3201 12.8367 18.2547 12.902C18.1894 12.9673 18.1054 13 18.0027 13H11.7307ZM22.5957 13C22.5024 13 22.4231 12.9673 22.3577 12.902C22.2924 12.8367 22.2597 12.7573 22.2597 12.664V4.922H19.6697C19.5764 4.922 19.4971 4.88933 19.4317 4.824C19.3664 4.75867 19.3337 4.67933 19.3337 4.586V3.55C19.3337 3.44733 19.3664 3.36333 19.4317 3.298C19.4971 3.23267 19.5764 3.2 19.6697 3.2H26.8097C26.9124 3.2 26.9964 3.23267 27.0617 3.298C27.1271 3.36333 27.1597 3.44733 27.1597 3.55V4.586C27.1597 4.67933 27.1271 4.75867 27.0617 4.824C26.9964 4.88933 26.9124 4.922 26.8097 4.922H24.2337V12.664C24.2337 12.7573 24.2011 12.8367 24.1357 12.902C24.0704 12.9673 23.9864 13 23.8837 13H22.5957ZM31.7737 13C31.6804 13 31.601 12.9673 31.5357 12.902C31.4704 12.8367 31.4377 12.7573 31.4377 12.664V3.536C31.4377 3.44267 31.4704 3.36333 31.5357 3.298C31.601 3.23267 31.6804 3.2 31.7737 3.2H33.0897C33.1924 3.2 33.2717 3.23267 33.3277 3.298C33.393 3.36333 33.4257 3.44267 33.4257 3.536V12.664C33.4257 12.7573 33.393 12.8367 33.3277 12.902C33.2717 12.9673 33.1924 13 33.0897 13H31.7737ZM38.1133 13C38.02 13 37.9406 12.9673 37.8753 12.902C37.81 12.8367 37.7773 12.7573 37.7773 12.664V4.922H35.1873C35.094 4.922 35.0146 4.88933 34.9493 4.824C34.884 4.75867 34.8513 4.67933 34.8513 4.586V3.55C34.8513 3.44733 34.884 3.36333 34.9493 3.298C35.0146 3.23267 35.094 3.2 35.1873 3.2H42.3273C42.43 3.2 42.514 3.23267 42.5793 3.298C42.6446 3.36333 42.6773 3.44733 42.6773 3.55V4.586C42.6773 4.67933 42.6446 4.75867 42.5793 4.824C42.514 4.88933 42.43 4.922 42.3273 4.922H39.7513V12.664C39.7513 12.7573 39.7186 12.8367 39.6533 12.902C39.588 12.9673 39.504 13 39.4013 13H38.1133ZM50.7213 13.14C49.8906 13.14 49.1766 13.0047 48.5793 12.734C47.9819 12.454 47.5153 12.0293 47.1793 11.46C46.8433 10.8813 46.6613 10.1627 46.6333 9.304C46.6239 8.90267 46.6193 8.506 46.6193 8.114C46.6193 7.722 46.6239 7.32067 46.6333 6.91C46.6613 6.06067 46.8479 5.35133 47.1933 4.782C47.5386 4.21267 48.0099 3.78333 48.6073 3.494C49.2139 3.20467 49.9186 3.06 50.7213 3.06C51.5239 3.06 52.2286 3.20467 52.8353 3.494C53.4419 3.78333 53.9179 4.21267 54.2633 4.782C54.6086 5.35133 54.7953 6.06067 54.8233 6.91C54.8419 7.32067 54.8513 7.722 54.8513 8.114C54.8513 8.506 54.8419 8.90267 54.8233 9.304C54.7953 10.1627 54.6133 10.8813 54.2773 11.46C53.9413 12.0293 53.4699 12.454 52.8633 12.734C52.2659 13.0047 51.5519 13.14 50.7213 13.14ZM50.7213 11.53C51.3279 11.53 51.8226 11.3527 52.2053 10.998C52.5879 10.634 52.7933 10.046 52.8213 9.234C52.8399 8.82333 52.8493 8.44533 52.8493 8.1C52.8493 7.74533 52.8399 7.36733 52.8213 6.966C52.8026 6.42467 52.6999 5.986 52.5133 5.65C52.3359 5.30467 52.0933 5.05733 51.7853 4.908C51.4773 4.74933 51.1226 4.67 50.7213 4.67C50.3293 4.67 49.9793 4.74933 49.6713 4.908C49.3633 5.05733 49.1159 5.30467 48.9293 5.65C48.7519 5.986 48.6539 6.42467 48.6353 6.966C48.6259 7.36733 48.6213 7.74533 48.6213 8.1C48.6213 8.44533 48.6259 8.82333 48.6353 9.234C48.6633 10.046 48.8686 10.634 49.2513 10.998C49.6339 11.3527 50.1239 11.53 50.7213 11.53ZM57.0257 13C56.9323 13 56.853 12.9673 56.7877 12.902C56.7223 12.8367 56.6897 12.7573 56.6897 12.664V3.55C56.6897 3.44733 56.7223 3.36333 56.7877 3.298C56.853 3.23267 56.9323 3.2 57.0257 3.2H58.1037C58.2343 3.2 58.3277 3.23267 58.3837 3.298C58.449 3.354 58.491 3.396 58.5097 3.424L62.5417 9.696V3.55C62.5417 3.44733 62.5697 3.36333 62.6257 3.298C62.691 3.23267 62.775 3.2 62.8777 3.2H64.0537C64.1563 3.2 64.2403 3.23267 64.3057 3.298C64.371 3.36333 64.4037 3.44733 64.4037 3.55V12.65C64.4037 12.7527 64.371 12.8367 64.3057 12.902C64.2403 12.9673 64.161 13 64.0677 13H62.9757C62.845 13 62.7517 12.9673 62.6957 12.902C62.6397 12.8367 62.5977 12.7947 62.5697 12.776L58.5517 6.644V12.664C58.5517 12.7573 58.519 12.8367 58.4537 12.902C58.3883 12.9673 58.3043 13 58.2017 13H57.0257Z" fill="white"/>
<path d="M10.552 43.28C8.77867 43.28 7.248 42.9907 5.96 42.412C4.69067 41.8147 3.70133 40.956 2.992 39.836C2.30133 38.6973 1.91867 37.316 1.844 35.692C1.82533 34.8893 1.816 34.04 1.816 33.144C1.816 32.2293 1.82533 31.3613 1.844 30.54C1.91867 28.9533 2.31067 27.6093 3.02 26.508C3.72933 25.4067 4.728 24.5667 6.016 23.988C7.304 23.4093 8.816 23.12 10.552 23.12C11.952 23.12 13.1933 23.2973 14.276 23.652C15.3587 23.988 16.264 24.4453 16.992 25.024C17.7387 25.6027 18.2987 26.2373 18.672 26.928C19.064 27.6187 19.2693 28.3 19.288 28.972C19.3067 29.14 19.2507 29.28 19.12 29.392C19.008 29.504 18.868 29.56 18.7 29.56H14.612C14.4067 29.56 14.248 29.532 14.136 29.476C14.0427 29.4013 13.9587 29.2987 13.884 29.168C13.7533 28.888 13.5573 28.5987 13.296 28.3C13.0533 27.9827 12.708 27.712 12.26 27.488C11.8307 27.264 11.2613 27.152 10.552 27.152C9.488 27.152 8.648 27.432 8.032 27.992C7.43467 28.552 7.108 29.448 7.052 30.68C6.996 32.2853 6.996 33.9093 7.052 35.552C7.108 36.8587 7.45333 37.8013 8.088 38.38C8.72267 38.9587 9.56267 39.248 10.608 39.248C11.3173 39.248 11.9427 39.1267 12.484 38.884C13.044 38.6413 13.4827 38.268 13.8 37.764C14.1173 37.2413 14.276 36.5787 14.276 35.776V35.244H11.644C11.4387 35.244 11.2613 35.1787 11.112 35.048C10.9813 34.8987 10.916 34.7213 10.916 34.516V32.444C10.916 32.2387 10.9813 32.0707 11.112 31.94C11.2613 31.7907 11.4387 31.716 11.644 31.716H18.7C18.9053 31.716 19.0733 31.7907 19.204 31.94C19.3347 32.0707 19.4 32.2387 19.4 32.444V35.636C19.4 37.2413 19.036 38.6133 18.308 39.752C17.58 40.8907 16.544 41.768 15.2 42.384C13.8747 42.9813 12.3253 43.28 10.552 43.28ZM29.1923 43.28C27.6243 43.28 26.299 43.028 25.2163 42.524C24.1523 42.02 23.331 41.3013 22.7523 40.368C22.1923 39.416 21.875 38.2867 21.8003 36.98C21.7817 36.6067 21.7723 36.1867 21.7723 35.72C21.7723 35.2347 21.7817 34.8147 21.8003 34.46C21.875 33.1347 22.211 32.0053 22.8083 31.072C23.4057 30.1387 24.2363 29.42 25.3003 28.916C26.383 28.412 27.6803 28.16 29.1923 28.16C30.723 28.16 32.0203 28.412 33.0843 28.916C34.167 29.42 35.007 30.1387 35.6043 31.072C36.2017 32.0053 36.5377 33.1347 36.6123 34.46C36.631 34.8147 36.6403 35.2347 36.6403 35.72C36.6403 36.1867 36.631 36.6067 36.6123 36.98C36.5377 38.2867 36.211 39.416 35.6323 40.368C35.0723 41.3013 34.251 42.02 33.1683 42.524C32.1043 43.028 30.779 43.28 29.1923 43.28ZM29.1923 39.864C30.0323 39.864 30.639 39.612 31.0123 39.108C31.4043 38.604 31.6283 37.848 31.6843 36.84C31.703 36.56 31.7123 36.1867 31.7123 35.72C31.7123 35.2533 31.703 34.88 31.6843 34.6C31.6283 33.6107 31.4043 32.864 31.0123 32.36C30.639 31.8373 30.0323 31.576 29.1923 31.576C28.371 31.576 27.7643 31.8373 27.3723 32.36C26.9803 32.864 26.7657 33.6107 26.7283 34.6C26.7097 34.88 26.7003 35.2533 26.7003 35.72C26.7003 36.1867 26.7097 36.56 26.7283 36.84C26.7657 37.848 26.9803 38.604 27.3723 39.108C27.7643 39.612 28.371 39.864 29.1923 39.864ZM46.2822 43.28C44.7142 43.28 43.3889 43.028 42.3062 42.524C41.2422 42.02 40.4209 41.3013 39.8422 40.368C39.2822 39.416 38.9649 38.2867 38.8902 36.98C38.8715 36.6067 38.8622 36.1867 38.8622 35.72C38.8622 35.2347 38.8715 34.8147 38.8902 34.46C38.9649 33.1347 39.3009 32.0053 39.8982 31.072C40.4955 30.1387 41.3262 29.42 42.3902 28.916C43.4729 28.412 44.7702 28.16 46.2822 28.16C47.8129 28.16 49.1102 28.412 50.1742 28.916C51.2569 29.42 52.0969 30.1387 52.6942 31.072C53.2915 32.0053 53.6275 33.1347 53.7022 34.46C53.7209 34.8147 53.7302 35.2347 53.7302 35.72C53.7302 36.1867 53.7209 36.6067 53.7022 36.98C53.6275 38.2867 53.3009 39.416 52.7222 40.368C52.1622 41.3013 51.3409 42.02 50.2582 42.524C49.1942 43.028 47.8689 43.28 46.2822 43.28ZM46.2822 39.864C47.1222 39.864 47.7289 39.612 48.1022 39.108C48.4942 38.604 48.7182 37.848 48.7742 36.84C48.7929 36.56 48.8022 36.1867 48.8022 35.72C48.8022 35.2533 48.7929 34.88 48.7742 34.6C48.7182 33.6107 48.4942 32.864 48.1022 32.36C47.7289 31.8373 47.1222 31.576 46.2822 31.576C45.4609 31.576 44.8542 31.8373 44.4622 32.36C44.0702 32.864 43.8555 33.6107 43.8182 34.6C43.7995 34.88 43.7902 35.2533 43.7902 35.72C43.7902 36.1867 43.7995 36.56 43.8182 36.84C43.8555 37.848 44.0702 38.604 44.4622 39.108C44.8542 39.612 45.4609 39.864 46.2822 39.864ZM63.624 49.16C62.1867 49.16 60.992 48.9733 60.04 48.6C59.1067 48.2267 58.36 47.7787 57.8 47.256C57.2587 46.7333 56.8667 46.2107 56.624 45.688C56.3814 45.184 56.2507 44.7827 56.232 44.484C56.2134 44.2787 56.2787 44.1107 56.428 43.98C56.5774 43.8493 56.7547 43.784 56.96 43.784H60.516C60.684 43.784 60.824 43.8213 60.936 43.896C61.0667 43.9893 61.1694 44.1387 61.244 44.344C61.3374 44.5493 61.4587 44.764 61.608 44.988C61.776 45.212 62 45.3893 62.28 45.52C62.5787 45.6693 62.98 45.744 63.484 45.744C64.044 45.744 64.5107 45.6507 64.884 45.464C65.2574 45.296 65.5374 45.0067 65.724 44.596C65.9107 44.204 66.004 43.672 66.004 43V41.124C65.5747 41.5907 65.024 41.9733 64.352 42.272C63.68 42.552 62.868 42.692 61.916 42.692C60.964 42.692 60.124 42.552 59.396 42.272C58.668 41.992 58.0614 41.572 57.576 41.012C57.0907 40.452 56.708 39.7707 56.428 38.968C56.1667 38.1653 56.008 37.2413 55.952 36.196C55.9334 35.7107 55.9334 35.2253 55.952 34.74C56.008 33.732 56.1667 32.8267 56.428 32.024C56.6894 31.2213 57.0627 30.5307 57.548 29.952C58.052 29.3733 58.668 28.9347 59.396 28.636C60.124 28.3187 60.964 28.16 61.916 28.16C62.924 28.16 63.7827 28.356 64.492 28.748C65.22 29.1213 65.8174 29.5973 66.284 30.176V29.14C66.284 28.9533 66.3494 28.7947 66.48 28.664C66.6107 28.5147 66.7787 28.44 66.984 28.44H70.204C70.4094 28.44 70.5774 28.5147 70.708 28.664C70.8574 28.7947 70.932 28.9533 70.932 29.14V42.608C70.932 44.0267 70.6427 45.2213 70.064 46.192C69.4854 47.1627 68.6547 47.9 67.572 48.404C66.4894 48.908 65.1734 49.16 63.624 49.16ZM63.428 39.052C64.0254 39.052 64.5107 38.9213 64.884 38.66C65.2574 38.3987 65.528 38.0627 65.696 37.652C65.8827 37.2413 65.9854 36.8027 66.004 36.336C66.0227 36.1307 66.032 35.8413 66.032 35.468C66.032 35.0947 66.0227 34.8147 66.004 34.628C65.9854 34.1427 65.8827 33.6947 65.696 33.284C65.528 32.8733 65.2574 32.5467 64.884 32.304C64.5107 32.0427 64.0254 31.912 63.428 31.912C62.812 31.912 62.3174 32.0427 61.944 32.304C61.5894 32.5653 61.328 32.92 61.16 33.368C61.0107 33.816 60.9174 34.3107 60.88 34.852C60.8614 35.2627 60.8614 35.6827 60.88 36.112C60.9174 36.6533 61.0107 37.148 61.16 37.596C61.328 38.044 61.5894 38.3987 61.944 38.66C62.3174 38.9213 62.812 39.052 63.428 39.052ZM74.9301 43C74.7248 43 74.5568 42.9347 74.4261 42.804C74.2955 42.6733 74.2301 42.5053 74.2301 42.3V23.82C74.2301 23.6147 74.2955 23.4467 74.4261 23.316C74.5568 23.1853 74.7248 23.12 74.9301 23.12H78.2341C78.4395 23.12 78.6075 23.1853 78.7381 23.316C78.8688 23.4467 78.9341 23.6147 78.9341 23.82V42.3C78.9341 42.5053 78.8688 42.6733 78.7381 42.804C78.6075 42.9347 78.4395 43 78.2341 43H74.9301ZM88.9618 43.28C86.7592 43.28 85.0045 42.6827 83.6978 41.488C82.3912 40.2933 81.7098 38.52 81.6538 36.168C81.6538 36.0373 81.6538 35.8693 81.6538 35.664C81.6538 35.4587 81.6538 35.3 81.6538 35.188C81.7098 33.7133 82.0365 32.4533 82.6338 31.408C83.2498 30.344 84.0898 29.5413 85.1538 29C86.2365 28.44 87.4965 28.16 88.9338 28.16C90.5765 28.16 91.9298 28.4867 92.9938 29.14C94.0765 29.7933 94.8885 30.68 95.4298 31.8C95.9712 32.92 96.2418 34.1987 96.2418 35.636V36.308C96.2418 36.5133 96.1672 36.6813 96.0178 36.812C95.8872 36.9427 95.7285 37.008 95.5418 37.008H86.5818C86.5818 37.0267 86.5818 37.0547 86.5818 37.092C86.5818 37.1293 86.5818 37.1667 86.5818 37.204C86.6005 37.7453 86.6938 38.24 86.8618 38.688C87.0298 39.136 87.2912 39.4907 87.6458 39.752C88.0005 40.0133 88.4298 40.144 88.9338 40.144C89.3072 40.144 89.6152 40.088 89.8578 39.976C90.1192 39.8453 90.3338 39.7053 90.5018 39.556C90.6698 39.388 90.8005 39.248 90.8938 39.136C91.0618 38.9493 91.1925 38.8373 91.2858 38.8C91.3978 38.744 91.5658 38.716 91.7898 38.716H95.2618C95.4485 38.716 95.5978 38.772 95.7098 38.884C95.8405 38.9773 95.8965 39.1173 95.8778 39.304C95.8592 39.6213 95.7005 40.004 95.4018 40.452C95.1032 40.9 94.6645 41.348 94.0858 41.796C93.5258 42.2253 92.8165 42.58 91.9578 42.86C91.0992 43.14 90.1005 43.28 88.9618 43.28ZM86.5818 34.236H91.3138V34.18C91.3138 33.5827 91.2205 33.06 91.0338 32.612C90.8658 32.164 90.5952 31.8187 90.2218 31.576C89.8672 31.3333 89.4378 31.212 88.9338 31.212C88.4298 31.212 88.0005 31.3333 87.6458 31.576C87.3098 31.8187 87.0485 32.164 86.8618 32.612C86.6752 33.06 86.5818 33.5827 86.5818 34.18V34.236ZM105.836 43C105.63 43 105.462 42.9347 105.332 42.804C105.201 42.6733 105.136 42.5053 105.136 42.3V24.1C105.136 23.8947 105.201 23.7267 105.332 23.596C105.462 23.4653 105.63 23.4 105.836 23.4H113.676C115.225 23.4 116.569 23.6427 117.708 24.128C118.865 24.5947 119.761 25.304 120.396 26.256C121.049 27.208 121.376 28.412 121.376 29.868C121.376 31.3053 121.049 32.4907 120.396 33.424C119.761 34.3573 118.865 35.048 117.708 35.496C116.569 35.944 115.225 36.168 113.676 36.168H110.344V42.3C110.344 42.5053 110.269 42.6733 110.12 42.804C109.989 42.9347 109.821 43 109.616 43H105.836ZM110.26 32.304H113.536C114.338 32.304 114.973 32.0987 115.44 31.688C115.925 31.2773 116.168 30.652 116.168 29.812C116.168 29.1027 115.962 28.5053 115.552 28.02C115.141 27.5347 114.469 27.292 113.536 27.292H110.26V32.304ZM124.45 43C124.244 43 124.076 42.9347 123.946 42.804C123.815 42.6733 123.75 42.5053 123.75 42.3V23.82C123.75 23.6147 123.815 23.4467 123.946 23.316C124.076 23.1853 124.244 23.12 124.45 23.12H127.754C127.959 23.12 128.127 23.1853 128.258 23.316C128.388 23.4467 128.454 23.6147 128.454 23.82V42.3C128.454 42.5053 128.388 42.6733 128.258 42.804C128.127 42.9347 127.959 43 127.754 43H124.45ZM136.129 43.28C135.121 43.28 134.216 43.0933 133.413 42.72C132.629 42.328 132.004 41.8053 131.537 41.152C131.071 40.4987 130.837 39.7613 130.837 38.94C130.837 37.6147 131.379 36.5693 132.461 35.804C133.544 35.02 134.981 34.488 136.773 34.208L140.273 33.676V33.284C140.273 32.612 140.133 32.0987 139.853 31.744C139.573 31.3893 139.06 31.212 138.313 31.212C137.791 31.212 137.361 31.3147 137.025 31.52C136.708 31.7253 136.456 32.0053 136.269 32.36C136.101 32.6027 135.868 32.724 135.569 32.724H132.433C132.228 32.724 132.069 32.668 131.957 32.556C131.845 32.4253 131.799 32.276 131.817 32.108C131.817 31.772 131.939 31.3893 132.181 30.96C132.443 30.512 132.835 30.0733 133.357 29.644C133.88 29.2147 134.552 28.86 135.373 28.58C136.195 28.3 137.184 28.16 138.341 28.16C139.555 28.16 140.591 28.3 141.449 28.58C142.308 28.86 142.999 29.252 143.521 29.756C144.063 30.26 144.464 30.8573 144.725 31.548C144.987 32.22 145.117 32.9667 145.117 33.788V42.3C145.117 42.5053 145.043 42.6733 144.893 42.804C144.763 42.9347 144.604 43 144.417 43H141.169C140.964 43 140.796 42.9347 140.665 42.804C140.535 42.6733 140.469 42.5053 140.469 42.3V41.32C140.227 41.6747 139.9 42.0013 139.489 42.3C139.079 42.5987 138.593 42.832 138.033 43C137.492 43.1867 136.857 43.28 136.129 43.28ZM137.445 40.088C137.987 40.088 138.472 39.976 138.901 39.752C139.349 39.5093 139.695 39.1453 139.937 38.66C140.199 38.156 140.329 37.5307 140.329 36.784V36.392L137.949 36.812C137.072 36.9613 136.428 37.1947 136.017 37.512C135.625 37.8107 135.429 38.1653 135.429 38.576C135.429 38.8933 135.523 39.164 135.709 39.388C135.896 39.612 136.139 39.7893 136.437 39.92C136.736 40.032 137.072 40.088 137.445 40.088ZM150.528 48.32C150.36 48.32 150.22 48.264 150.108 48.152C149.996 48.04 149.94 47.9 149.94 47.732C149.94 47.6947 149.94 47.6387 149.94 47.564C149.959 47.508 149.987 47.4427 150.024 47.368L152.208 42.104L146.832 29.392C146.776 29.2613 146.748 29.1493 146.748 29.056C146.785 28.888 146.86 28.748 146.972 28.636C147.084 28.5053 147.224 28.44 147.392 28.44H150.584C150.827 28.44 151.004 28.5053 151.116 28.636C151.247 28.748 151.331 28.8787 151.368 29.028L154.588 37.176L157.864 29.028C157.939 28.8787 158.032 28.748 158.144 28.636C158.275 28.5053 158.461 28.44 158.704 28.44H161.84C162.008 28.44 162.148 28.5053 162.26 28.636C162.391 28.748 162.456 28.8787 162.456 29.028C162.456 29.1213 162.428 29.2427 162.372 29.392L154.448 47.732C154.392 47.8813 154.299 48.012 154.168 48.124C154.037 48.2547 153.851 48.32 153.608 48.32H150.528Z" fill="white"/>
</svg>
