<svg width="49" height="54" viewBox="0 0 49 54" fill="none" xmlns="http://www.w3.org/2000/svg">
<g clip-path="url(#clip0_0_928)">
<path d="M22.9157 25.7656L0.698242 49.0428C0.947742 49.927 1.3961 50.7424 2.00904 51.4268C2.62199 52.1111 3.38329 52.6463 4.23475 52.9913C5.08622 53.3364 6.0053 53.4822 6.92174 53.4176C7.83818 53.353 8.72773 53.0797 9.52237 52.6186L34.5212 38.381L22.9157 25.7656Z" fill="#EA4335"/>
<path d="M45.382 21.8089L34.5717 15.6169L22.4033 26.2951L34.6212 38.3476L45.3492 32.2219C46.2996 31.7243 47.0956 30.976 47.651 30.0582C48.2065 29.1404 48.5001 28.0881 48.5001 27.0153C48.5001 25.9426 48.2065 24.8903 47.651 23.9725C47.0956 23.0547 46.2996 22.3064 45.3492 21.8088L45.382 21.8089Z" fill="#FBBC04"/>
<path d="M0.698808 4.87256C0.564594 5.36904 0.497745 5.88132 0.500058 6.39562V47.5194C0.501383 48.0336 0.56817 48.5454 0.698808 49.0427L23.6779 26.3616L0.698808 4.87256Z" fill="#4285F4"/>
<path d="M23.0812 26.9576L34.5709 15.6171L9.60524 1.31307C8.66592 0.762988 7.59759 0.471661 6.50905 0.468761C3.80774 0.463511 1.43287 2.25639 0.698242 4.85607L23.0812 26.9576Z" fill="#34A853"/>
</g>
<defs>
<clipPath id="clip0_0_928">
<rect width="48" height="53.0625" fill="white" transform="translate(0.5 0.46875)"/>
</clipPath>
</defs>
</svg>
